<svg xmlns="http://www.w3.org/2000/svg" width="170.371" height="146.328" viewBox="0 0 170.371 146.328">
  <g id="Grupo_59" data-name="Grupo 59" transform="translate(859.998 805.998)">
    <path id="Trazado_55" data-name="Trazado 55" d="M-730.226-659.9c-1.417-10.962-2.8-21.757-4.243-32.544a5.187,5.187,0,0,0-1.067-1.933,30.814,30.814,0,0,1-1.906-2.656c-.654-1.237-.961-2.667-1.667-3.866-1.726-2.929-3.446-3.5-6.681-2.516-4.684,1.422-9.332,3-14.076,4.18-7.235,1.805-14.523,1.3-21.783-.084a17.513,17.513,0,0,0-3.219-.287c-3.4-.006-4.873,1.21-5.5,4.516-.387,2.039.006,4.32-2.462,5.573-.513.261-.418,1.852-.485,2.838-.384,5.642-.6,11.3-1.126,16.928-.654,7-5.233,10.656-12.218,9.812-1.9-8.67-3.828-17.415-5.742-26.163-.326-1.489-.37-3.027-2.354-3.575-.583-.161-1.051-1.41-1.238-2.235q-4.345-19.2-8.565-38.419c-.146-.664-.145-1.8.24-2.067,1.837-1.287,1.122-2.829.721-4.388-1.881-7.316-3.683-14.655-5.668-21.942-1.294-4.749-2.514-5.523-7.355-5.851a34.591,34.591,0,0,1-14.154-3.562,16.869,16.869,0,0,1-8.94-18.182,2.823,2.823,0,0,1,1.951-1.619c8.742-1.607,17.506-3.093,26.261-4.623.811-.142,1.606-.372,1.832-.425-2.29-2.885-.517-6.533-1.769-9.526l.6-.5,8.061,5.977c-.156-2.881-.3-5.545-.485-8.962,2.777,2.184,5.253,3.84,7.386,5.858,8.794,8.314,15.308,18.366,21.464,28.668,1.62,2.711,3.032,5.549,4.717,8.217a27.507,27.507,0,0,0,3.464,4.2c.858.9,1.817,1.569,3.254.572.589-.408,1.788-.141,2.646.074,18.793,4.727,37.831,5.07,56.987,3.2,1.55-.152,2.921-.407,3.948,1.221.25.4,1.336.521,1.956.389,11.289-2.406,20.141-7.717,23.246-19.764.041-.161.033-.368.133-.476.831-.9,1.683-1.779,2.527-2.665.67,1.132,1.884,2.254,1.9,3.4a51.481,51.481,0,0,1-.722,8.92c-1.617,10.144-7.1,18.147-14.35,25.072a7.252,7.252,0,0,0-2.441,5.42c-.344,6.129-1.327,12.221-2.061,18.328-.606,5.033-1.145,10.077-1.893,15.089-.16,1.074-1.137,2.011-1.656,3.052a8.758,8.758,0,0,0-1.111,2.767c-.77,7.192-1.4,14.4-2.164,21.591a26.166,26.166,0,0,1-1.09,5.357C-719.073-661.556-723.812-658.83-730.226-659.9Zm-64.9-35.29c.209-.674.382-1.217.546-1.764,1.519-5.084,4.336-7.2,9.675-7.178a23.079,23.079,0,0,1,4.21.368c7.359,1.414,14.693,1.691,21.969-.414,3.984-1.152,7.927-2.442,11.89-3.664,4.769-1.469,8.428-.217,11.225,3.944.868,1.292,1.525,2.726,2,3.585l18.218-2.394c1.212-9.775,2.475-19.959,3.739-30.152-9.119-2.58-12.377-9.013-12.456-17.55-.878,0-1.537-.052-2.186.008a166.773,166.773,0,0,1-51.583-2.785c-2.533-.561-3.6.016-4.856,2.125A42.177,42.177,0,0,1-809.4-731.212c-3.271.847-6.62,1.391-10.248,2.139l7.535,33.886Z" transform="translate(0)" fill="#e9e9e9"/>
    <path id="Trazado_56" data-name="Trazado 56" d="M-624.219-663.931a28.1,28.1,0,0,1-4.531-1.52c-2-1.031-1.893-2.862.011-3.975.766-.448,1.432-1.065,2.177-1.556a5.818,5.818,0,0,1,1.876-1.03c1.242-.245,5.371,4.117,5.165,5.524C-619.89-663.968-622.071-664.381-624.219-663.931Z" transform="translate(-115.05 -67.079)" fill="#e9e9e9"/>
    <path id="Trazado_57" data-name="Trazado 57" d="M-684.984-664.338c-1.279-.685-2.789-1.028-3.311-1.937-.346-.6.715-2.022,1.165-3.068.227-.528.493-1.039.742-1.557,1.091-2.266,2.493-2.536,4.493-.945a12.4,12.4,0,0,0,2.282,1.39c1.912.933,2.255,2.689.437,3.792A36.969,36.969,0,0,1-684.984-664.338Z" transform="translate(-85.934 -66.662)" fill="#e9e9e9"/>
    <path id="Trazado_58" data-name="Trazado 58" d="M-598.931-624.474c.165.711.3,1.431.5,2.131.653,2.248-.308,3.518-2.526,3.034a8.892,8.892,0,0,1-6.2-4.906,2.676,2.676,0,0,1,.039-2.083c.644-1.331,6.774-1.909,7.689-.72a9.116,9.116,0,0,1,.944,2.4Z" transform="translate(-126.498 -89.288)" fill="#e9e9e9"/>
    <path id="Trazado_59" data-name="Trazado 59" d="M-756.848-619.315a43.581,43.581,0,0,1-6.049-3.676c-1.7-1.433-.969-3.224,1.2-3.766a25.347,25.347,0,0,0,2.523-.869c.229-.084.454-.355.649-.326.917.136,2.414.085,2.63.575a29.044,29.044,0,0,1,1.919,6.388C-753.914-620.673-755.569-620.038-756.848-619.315Z" transform="translate(-48.147 -89.143)" fill="#e9e9e9"/>
    <path id="Trazado_60" data-name="Trazado 60" d="M-699.128-630a32.622,32.622,0,0,1,4.092-.17c1.642.126,2.258,1.178,1.881,2.789-.516,2.2-3.867,5.457-6.137,5.584-.828.046-2.383-.725-2.44-1.251a19.655,19.655,0,0,1,.267-5.818c.135-.692,1.338-1.176,2.053-1.755Z" transform="translate(-79.188 -87.808)" fill="#e9e9e9"/>
    <path id="Trazado_61" data-name="Trazado 61" d="M-653.559-622.785a42.727,42.727,0,0,1-6.17-3.138c-1.732-1.251-1.191-2.975.825-3.7a24.216,24.216,0,0,0,2.435-1.129c.22-.107.413-.42.6-.408.992.061,2.576-.141,2.863.365a26.073,26.073,0,0,1,2.424,6.174C-650.5-624.325-652.3-623.539-653.559-622.785Z" transform="translate(-99.751 -87.54)" fill="#e9e9e9"/>
    <path id="Trazado_62" data-name="Trazado 62" d="M-642.2-643.365c1.951,1.755,2.441,3.766,1.089,5.114a2.533,2.533,0,0,1-2.262.61,2.463,2.463,0,0,1-.668-2.247A18.919,18.919,0,0,1-642.2-643.365Z" transform="translate(-108.097 -81.427)" fill="#e9e9e9"/>
    <path id="Trazado_63" data-name="Trazado 63" d="M-711.665-636.989a16.4,16.4,0,0,1,3.027,2.37c.5.62.407,1.706.58,2.584-.96.008-2.176.394-2.83-.049C-712.555-633.215-712.508-634.965-711.665-636.989Z" transform="translate(-73.981 -84.62)" fill="#e9e9e9"/>
    <path id="Trazado_64" data-name="Trazado 64" d="M-760.157-639.292a27.731,27.731,0,0,1-.054,3.937c-.092.609-.749,1.592-1.147,1.591a2.554,2.554,0,0,1-1.9-1.087C-764.277-636.654-762.675-638.975-760.157-639.292Z" transform="translate(-48.28 -83.466)" fill="#e9e9e9"/>
    <path id="Trazado_65" data-name="Trazado 65" d="M-688.053-685.208a19.176,19.176,0,0,1,1.494,3.764c.12.679-.594,1.506-.932,2.266-.76-.356-1.888-.509-2.214-1.1C-690.808-682.29-689.965-683.883-688.053-685.208Z" transform="translate(-85.017 -60.477)" fill="#e9e9e9"/>
    <path id="Trazado_66" data-name="Trazado 66" d="M-614.828-685.154c1.825,1.172,3.005,2.534,2.132,4.536-.311.713-1.548,1.023-2.363,1.517a6.906,6.906,0,0,1-.882-2.495A16,16,0,0,1-614.828-685.154Z" transform="translate(-122.193 -60.504)" fill="#e9e9e9"/>
    <path id="Trazado_67" data-name="Trazado 67" d="M-590.469-639.355a13.46,13.46,0,0,1-1.723,3.219c-.6.618-1.723.727-2.614,1.062-.121-.964-.654-2.147-.282-2.848C-594.183-639.625-592.544-640.075-590.469-639.355Z" transform="translate(-132.57 -83.27)" fill="#e9e9e9"/>
    <path id="Trazado_68" data-name="Trazado 68" d="M-648.837-645.066a13.037,13.037,0,0,1-.536,3.579c-.365.784-1.392,1.259-2.126,1.871-.424-.866-1.271-1.774-1.19-2.59C-652.488-644.222-650.959-644.981-648.837-645.066Z" transform="translate(-103.793 -80.576)" fill="#e9e9e9"/>
    <path id="Trazado_69" data-name="Trazado 69" d="M-743.568-639.207c1.46,1.72,2,3.426.642,5.084-.464.568-1.665.533-2.529.774-.132-.879-.592-1.881-.32-2.608A16.618,16.618,0,0,1-743.568-639.207Z" transform="translate(-57.147 -83.509)" fill="#e9e9e9"/>
    <path id="Trazado_70" data-name="Trazado 70" d="M-621.889-686.114a22.458,22.458,0,0,1-.073,4.232c-.142.686-1.033,1.217-1.586,1.817-.6-.571-1.615-1.068-1.735-1.728C-625.695-684.036-624.283-685.205-621.889-686.114Z" transform="translate(-117.481 -60.024)" fill="#e9e9e9"/>
    <path id="Trazado_71" data-name="Trazado 71" d="M-707.478-640.741c2.136-.541,3.938-.6,4.946,1.33.35.668-.089,1.75-.168,2.642-.869-.193-1.98-.12-2.55-.64A16.918,16.918,0,0,1-707.478-640.741Z" transform="translate(-76.364 -82.578)" fill="#e9e9e9"/>
    <path id="Trazado_72" data-name="Trazado 72" d="M-607.487-677.705c1.63,1.841,1.755,4.246.209,5.27-.586.388-1.6.137-2.413.177a5.618,5.618,0,0,1,.036-2.213A24.5,24.5,0,0,1-607.487-677.705Z" transform="translate(-125.273 -64.234)" fill="#e9e9e9"/>
    <path id="Trazado_73" data-name="Trazado 73" d="M-636.7-635.543c1.549,2.778,1.081,5.129-.789,5.772a2.247,2.247,0,0,1-1.967-.281,2.064,2.064,0,0,1-.072-1.954A36.058,36.058,0,0,1-636.7-635.543Z" transform="translate(-110.282 -85.343)" fill="#e9e9e9"/>
    <path id="Trazado_74" data-name="Trazado 74" d="M-696.208-642.214c2.6-.013,4.4,1.371,4.216,3.238a2.388,2.388,0,0,1-1.222,1.786c-.485.134-1.523-.531-1.8-1.1A24.462,24.462,0,0,1-696.208-642.214Z" transform="translate(-82.007 -82.003)" fill="#e9e9e9"/>
    <path id="Trazado_75" data-name="Trazado 75" d="M-750.242-640.735a13.916,13.916,0,0,1-.975,3.526c-.381.663-1.492.907-2.277,1.339-.348-.759-1.015-1.532-.982-2.273C-754.391-640.013-752.655-640.986-750.242-640.735Z" transform="translate(-52.833 -82.725)" fill="#e9e9e9"/>
    <path id="Trazado_76" data-name="Trazado 76" d="M-713.855-625.961a29.973,29.973,0,0,1,3.833,1.522c.528.295,1.194,1.355,1.032,1.66a2.688,2.688,0,0,1-1.812,1.273C-712.794-621.316-714.209-623.375-713.855-625.961Z" transform="translate(-73.144 -90.141)" fill="#e9e9e9"/>
    <path id="Trazado_77" data-name="Trazado 77" d="M-680.727-685.948c2.413.482,3.829,1.884,3.407,3.657-.169.709-1.049,1.249-1.605,1.865-.6-.563-1.555-1.038-1.722-1.709A16.681,16.681,0,0,1-680.727-685.948Z" transform="translate(-89.721 -60.107)" fill="#e9e9e9"/>
    <path id="Trazado_78" data-name="Trazado 78" d="M-631.141-681.215a26.267,26.267,0,0,1,1.259,3.906c.106.645-.269,1.815-.721,1.99a2.4,2.4,0,0,1-2.075-.67C-633.939-677.357-633.322-679.506-631.141-681.215Z" transform="translate(-113.491 -62.476)" fill="#e9e9e9"/>
    <path id="Trazado_79" data-name="Trazado 79" d="M-671.5-682.14c2.292.992,3.239,3.314,1.995,4.9a2.31,2.31,0,0,1-1.972.8c-.507-.2-.707-1.24-.968-1.939-.063-.168.2-.437.252-.672C-671.951-680.065-671.731-681.087-671.5-682.14Z" transform="translate(-93.9 -62.013)" fill="#e9e9e9"/>
    <path id="Trazado_80" data-name="Trazado 80" d="M-585.1-635.993c1.227,2.492.986,4.533-.684,5.289-.627.285-1.939.286-2.177-.079a2.591,2.591,0,0,1-.062-2.356A19.508,19.508,0,0,1-585.1-635.993Z" transform="translate(-136.044 -85.118)" fill="#e9e9e9"/>
    <path id="Trazado_81" data-name="Trazado 81" d="M-658.822-642.135a22.1,22.1,0,0,1,.566,3.778c-.011.664-.655,1.316-1.014,1.973-.711-.411-1.71-.652-2.075-1.268C-662.275-639.221-661.042-641.355-658.822-642.135Z" transform="translate(-99.305 -82.043)" fill="#e9e9e9"/>
    <path id="Trazado_82" data-name="Trazado 82" d="M-582.588-625.387c.406,2.878-.866,4.872-2.885,4.715a2.206,2.206,0,0,1-1.677-1.059c-.145-.494.484-1.228.811-1.837.06-.112.3-.122.448-.194C-584.865-624.265-583.841-624.77-582.588-625.387Z" transform="translate(-136.599 -90.428)" fill="#e9e9e9"/>
    <path id="Trazado_83" data-name="Trazado 83" d="M-600.908-639.672a23.292,23.292,0,0,1-.851,3.749c-.249.62-1.061,1.014-1.619,1.51-.487-.579-1.27-1.1-1.406-1.748C-605.2-638.159-603.348-639.81-600.908-639.672Z" transform="translate(-127.751 -83.272)" fill="#e9e9e9"/>
    <path id="Trazado_84" data-name="Trazado 84" d="M-694.839-677.089a19.8,19.8,0,0,1,2.376,3.02c.326.63.049,1.571.044,2.373-.834-.091-1.849.086-2.464-.329C-696.314-672.992-696.257-675.287-694.839-677.089Z" transform="translate(-82.146 -64.542)" fill="#e9e9e9"/>
    <path id="Trazado_85" data-name="Trazado 85" d="M-739.028-629.347c1.086,1.849.7,4.15-.939,4.843-.706.3-1.731-.16-2.61-.275a6.4,6.4,0,0,1,.749-2.289A19.132,19.132,0,0,1-739.028-629.347Z" transform="translate(-58.79 -88.446)" fill="#e9e9e9"/>
  </g>
</svg>
