<svg xmlns="http://www.w3.org/2000/svg" width="126.721" height="103.458" viewBox="0 0 126.721 103.458">
  <g id="Grupo_1" data-name="Grupo 1" transform="translate(-86.197 -285.34)">
    <path id="Trazado_1" data-name="Trazado 1" d="M164.12,336.286h0Z" transform="translate(-14.502 -9.488)" fill="none"/>
    <path id="Trazado_2" data-name="Trazado 2" d="M171.439,391.151a3.048,3.048,0,0,0-1.7-3.605c-1.359-.49-2.563.19-3.372,1.755a1.579,1.579,0,0,1-1.151.7c-2.2.068-4.4.012-6.6.044a1.106,1.106,0,0,1-1.248-.84,2.522,2.522,0,0,0-3.148-1.7,2.98,2.98,0,0,0-1.9,3.252,13.605,13.605,0,0,1-.007,2.65,3.026,3.026,0,0,0,1.651,3.161c1.084.459,2.61.2,2.983-.9.6-1.743,1.818-1.556,3.118-1.518.616.018,1.232,0,1.848,0,1.144,0,2.293-.058,3.43.033a1.5,1.5,0,0,1,1.03.7c.823,1.593,1.986,2.238,3.374,1.746a3.063,3.063,0,0,0,1.7-3.612A4.694,4.694,0,0,1,171.439,391.151Z" transform="translate(-12.31 -19.005)" fill="none"/>
    <path id="Trazado_3" data-name="Trazado 3" d="M108.232,315.015c4.411-3.607,18.523-9.331,41.789-9.331,24.506,0,38.856,6.348,42.41,9.887q3.8-1.352,7.527-2.953l11.566-5c-7.351-15.248-35.286-22.28-61.5-22.28-26.021,0-53.73,6.93-61.33,21.942l16.9,6.72Q106.906,314.525,108.232,315.015Z" transform="translate(-0.465)" fill="#f5eee6"/>
    <path id="Trazado_4" data-name="Trazado 4" d="M165.253,372.171a22.88,22.88,0,0,1-.95,4.691,3.856,3.856,0,0,1-4.149,2.231,6.616,6.616,0,0,1-3.112-1.191c-1.934-1.431-1.46-3.7-1.522-5.735-6.395.675-12.447,9.021-12.119,16.589a16.929,16.929,0,0,0,16.1,16.2c9.328.272,16.708-6.342,17.577-15.755C177.772,381.71,171.809,373.2,165.253,372.171Zm2.836,21.627c-1.387.492-2.551-.154-3.374-1.746a1.5,1.5,0,0,0-1.03-.7c-1.137-.09-2.286-.033-3.43-.033-.616,0-1.232.014-1.848,0-1.3-.037-2.522-.225-3.118,1.518-.374,1.094-1.9,1.357-2.983.9a3.026,3.026,0,0,1-1.651-3.161,13.606,13.606,0,0,0,.007-2.65,2.98,2.98,0,0,1,1.9-3.252,2.522,2.522,0,0,1,3.148,1.7,1.106,1.106,0,0,0,1.248.84c2.2-.032,4.4.024,6.6-.044a1.579,1.579,0,0,0,1.151-.7c.81-1.564,2.013-2.244,3.372-1.755a3.048,3.048,0,0,1,1.7,3.605,4.694,4.694,0,0,0,0,1.869A3.063,3.063,0,0,1,168.089,393.8Z" transform="translate(-10.651 -16.17)" fill="#f5eee6"/>
    <path id="Trazado_5" data-name="Trazado 5" d="M166.145,357.7a2.642,2.642,0,1,0-5.279,0c0,.493,0,.986,0,1.479q-.007,5.982.014,11.966a2.632,2.632,0,1,0,5.262,0c.021-2.241,0-4.482,0-6.724q0-2.622,0-5.245C166.144,358.681,166.148,358.189,166.145,357.7Z" transform="translate(-13.906 -12.96)" fill="#f5eee6"/>
    <path id="Trazado_6" data-name="Trazado 6" d="M171.154,335.419v-1.976H152.939v13.225h18.215Zm-9.108.338h0Zm0-.9h-.06c.057,0,.114,0,.17,0Z" transform="translate(-12.429 -8.958)" fill="#f5eee6"/>
    <path id="Trazado_7" data-name="Trazado 7" d="M164.117,335.174h.11c-.056,0-.113,0-.17,0Z" transform="translate(-14.5 -9.28)" fill="#f5eee6"/>
    <path id="Trazado_8" data-name="Trazado 8" d="M180.352,328.269c0-5.439-3.352-8.816-8.792-8.842-3.346-.016-6.692,0-10.038,0-4.887,0-9.774-.024-14.661.006-4.976.03-8.536,3.3-8.6,8.078-.012.9-.008,1.808-.016,2.712,0,.081,0,.163,0,.243q-.076,8.427.011,16.856a8.771,8.771,0,0,0,.93,3.858,7.025,7.025,0,0,0,5.158,3.934,89.428,89.428,0,0,0,9.988.475c.1-1.061.2-2.076.291-3.078.157-1.661.31-3.278.468-4.945h-8.909V327.342h26.2a3.494,3.494,0,0,1,.11.579q0,1.861,0,3.721c0,5.01,0,10.021.024,15.031,0,.9-.453.976-1.16.97-2.744-.023-5.488-.009-8.462-.009,0,0,1.08,6.853,1.259,7.835,2.62,0,5.206.024,7.791,0a8.215,8.215,0,0,0,7.391-4.274,9.047,9.047,0,0,0,1.031-4.307q-.018-8.139-.007-16.279Q180.353,329.436,180.352,328.269Z" transform="translate(-9.686 -6.346)" fill="#f5eee6"/>
    <path id="Trazado_9" data-name="Trazado 9" d="M232.8,321.51a18.7,18.7,0,0,0-.8-5.449l-12.626,5.456a122.955,122.955,0,0,1-26.4,8.005v20.486C214.747,346.262,232.8,337.02,232.8,321.51Z" transform="translate(-19.885 -5.721)" fill="#f5eee6"/>
    <path id="Trazado_10" data-name="Trazado 10" d="M117.574,327.015a123,123,0,0,1-12.45-4.189L87.1,315.656a18.675,18.675,0,0,0-.9,5.779c0,15.511,18.058,24.755,39.834,28.5V329.279A74.328,74.328,0,0,1,117.574,327.015Z" transform="translate(0 -5.646)" fill="#f5eee6"/>
  </g>
</svg>
