<svg xmlns="http://www.w3.org/2000/svg" width="149.826" height="133.601" viewBox="0 0 149.826 133.601">
  <path id="Trazado_18" data-name="Trazado 18" d="M-443.654,731.786A39.359,39.359,0,0,1-441.8,725.7c3.767-7.747,9.925-12.039,18.671-12.309,1.174-.036,2.351,0,3.619,0,3.224-10.046,9.96-16.012,20.76-16.03,8.6-.015,15.154,4.193,18.77,12.113,4.085,8.945,1.967,16.957-4.573,24.147,3.532,5.253,7.05,10.54,10.664,15.762a2.642,2.642,0,0,0,1.92.717c6.029.053,12.072-.23,18.085.085,12.306.645,24.549,1.891,36.138,6.541a33.292,33.292,0,0,1,6.058,3.134,11.807,11.807,0,0,1,5.137,7.2c4.018,15.5,8.3,30.923,12.5,46.373a1.382,1.382,0,0,0,.221.349v1.665c-1.194,2.7-3.8,3.55-6.2,4.513A154.511,154.511,0,0,1-345.553,830.3a284.651,284.651,0,0,1-29.056.521,137.561,137.561,0,0,1-39.208-6.259c-5.086-1.638-10-3.728-13.9-7.575-2.586-2.552-3.675-5.482-2.648-9.229,3.8-13.853,7.382-27.765,11.229-41.605a12.015,12.015,0,0,1,3.2-4.921,39.04,39.04,0,0,1,5.4-3.86l-2.83-4.183c-.638.22-1.217.4-1.781.617a20.579,20.579,0,0,1-25.276-8.583c-1.5-2.568-2.174-5.615-3.227-8.442Zm28.537,43.638c-3.047,11.288-5.985,22.357-9.063,33.387-.49,1.757-.213,3.139,1.148,4.014a47.815,47.815,0,0,0,8.254,4.661c12.058,4.692,24.776,6.174,37.562,7.054a185.974,185.974,0,0,0,34.237-.729,173.984,173.984,0,0,0,36.375-8c2.057-.7,4.044-1.612,6.061-2.426l-10.276-37.922c-1.351.779-2.457,1.493-3.626,2.081-8.6,4.334-17.945,5.908-27.358,7.052a155.907,155.907,0,0,1-32.778.8c-7.7-.69-15.389-1.716-22.988-3.107A44.112,44.112,0,0,1-415.117,775.425Zm53.447,3.669c-.3-.493-.682-1.2-1.127-1.864q-13.772-20.527-27.557-41.049c-2.237-3.331-2.126-4.059.954-6.763a14.928,14.928,0,0,0,3.109-18.686,14.917,14.917,0,0,0-15.918-6.833c-6.261,1.368-10.59,6.368-11.422,13.193-.361,2.96-1.763,3.718-4.717,3.192a20.012,20.012,0,0,0-7.377-.342,13.825,13.825,0,0,0-11.244,11.181c-1.358,6.059.63,11.162,5.552,14.855s10.325,4,15.807,1.143c3.738-1.945,4.506-1.773,6.91,1.769q9.332,13.749,18.726,27.456a3.425,3.425,0,0,0,2.056,1.341,111.931,111.931,0,0,0,11.326,1.352C-371.643,779.264-366.676,779.094-361.67,779.094Zm-7.566-22.69c5.034,7.524,9.816,14.727,14.7,21.863a2.815,2.815,0,0,0,2.2.924c5.368-.488,10.758-.905,16.075-1.752,6.885-1.1,13.751-2.45,19.917-6,4.611-2.654,4.753-4.876-.065-7.1a65.21,65.21,0,0,0-14.421-4.94,202.984,202.984,0,0,0-22.374-2.916C-358.4,756.051-363.667,756.4-369.236,756.4Zm-37.693,6.229c-1.836,1.252-3.583,2.332-5.2,3.582-1.378,1.063-1.318,2.317.018,3.454,3.959,3.371,8.821,4.609,14.171,6.17Z" transform="translate(443.654 -697.354)" fill="#e9e9e8"/>
</svg>
