<svg xmlns="http://www.w3.org/2000/svg" width="32.237" height="49.569" viewBox="0 0 32.237 49.569">
  <g id="EAvZDc" transform="translate(426.815 -317.162)">
    <g id="Grupo_3" data-name="Grupo 3" transform="translate(-426.815 317.162)">
      <path id="Trazado_11" data-name="Trazado 11" d="M-394.583,387.553q0,7.118,0,14.237c0,2.87-1.507,4.376-4.4,4.378q-11.707.011-23.414,0c-2.934,0-4.414-1.509-4.415-4.466q0-14.08,0-28.161c0-4.178,2.5-6.671,6.671-6.674q9.541-.009,19.082,0a6.105,6.105,0,0,1,6.47,6.459C-394.569,378.066-394.582,382.81-394.583,387.553Zm-2.679-11.7h-26.859c0,1.7.005,3.34,0,4.977-.018,4.573-.016,9.147-.082,13.72-.013.936.232,1.22,1.194,1.216,8.22-.038,16.44-.021,24.66-.023.337,0,.673-.029,1.089-.048Z" transform="translate(426.815 -356.605)" fill="#e9e9e8"/>
      <path id="Trazado_12" data-name="Trazado 12" d="M-394.61,317.166q4.539,0,9.079,0c1.884,0,2.807.9,2.827,2.756q.019,1.857,0,3.715a2.444,2.444,0,0,1-2.655,2.729q-9.285.023-18.57,0a2.423,2.423,0,0,1-2.623-2.654c-.02-1.307-.023-2.614,0-3.921a2.432,2.432,0,0,1,2.658-2.619C-400.8,317.156-397.705,317.165-394.61,317.166Z" transform="translate(410.747 -317.162)" fill="#e9e9e8"/>
      <g id="FnpSdj" transform="translate(7.564 20.978)">
        <g id="Grupo_2" data-name="Grupo 2">
          <path id="Trazado_13" data-name="Trazado 13" d="M-374.365,458.9a3.01,3.01,0,0,1,1.147-2.422,7.474,7.474,0,0,0,1.554-1.8c.208-.317.424-.631.659-.928a2.246,2.246,0,0,1,1.728-.85,2.581,2.581,0,0,1,1.642.392,3.292,3.292,0,0,1,.829.893c.3.43.584.868.893,1.29a5.732,5.732,0,0,0,.978.994,2.893,2.893,0,0,1,1.044,3.125,2.922,2.922,0,0,1-2.451,2.233,2.732,2.732,0,0,1-1.369-.1,4.375,4.375,0,0,0-2.725,0,3.026,3.026,0,0,1-3.878-2.374C-374.343,459.184-374.353,459.012-374.365,458.9Z" transform="translate(377.623 -445.866)" fill="#e9e9e8"/>
          <path id="Trazado_14" data-name="Trazado 14" d="M-368.4,422.244a8.094,8.094,0,0,1-.158,1.788,2.463,2.463,0,0,1-.813,1.335,1.729,1.729,0,0,1-2.294-.011,3.486,3.486,0,0,1-1.093-1.753,3.689,3.689,0,0,1,.971-3.873,3.094,3.094,0,0,1,1.429-.84,1.153,1.153,0,0,1,1.315.491,3.283,3.283,0,0,1,.485,1.275,4.9,4.9,0,0,1,.083.53C-368.443,421.59-368.419,421.994-368.4,422.244Z" transform="translate(376.497 -418.842)" fill="#e9e9e8"/>
          <path id="Trazado_15" data-name="Trazado 15" d="M-341.941,422.679a3.96,3.96,0,0,1-1.014,2.406,1.873,1.873,0,0,1-1.249.69,1.78,1.78,0,0,1-1.583-.677,2.741,2.741,0,0,1-.634-1.534,10.412,10.412,0,0,1,0-2.381,4.539,4.539,0,0,1,.347-1.4,2.388,2.388,0,0,1,.337-.545,1.151,1.151,0,0,1,1.351-.311,3.516,3.516,0,0,1,1.7,1.3A3.93,3.93,0,0,1-341.941,422.679Z" transform="translate(355.499 -418.834)" fill="#e9e9e8"/>
          <path id="Trazado_16" data-name="Trazado 16" d="M-385.945,444.126a2.865,2.865,0,0,1-.171,1.11,1.185,1.185,0,0,1-1.064.767,2.7,2.7,0,0,1-2.9-2.238,5.455,5.455,0,0,1,.12-2.363,4.716,4.716,0,0,1,.376-1.105,2.4,2.4,0,0,1,.283-.429.829.829,0,0,1,1.056-.223,2.25,2.25,0,0,1,.789.652,6.959,6.959,0,0,1,1.4,3.033C-385.991,443.634-385.969,443.947-385.945,444.126Z" transform="translate(390.156 -435.273)" fill="#e9e9e8"/>
          <path id="Trazado_17" data-name="Trazado 17" d="M-327.7,444.356a6.547,6.547,0,0,1,.551-2.46,5.594,5.594,0,0,1,1.115-1.784,2.681,2.681,0,0,1,.591-.457.828.828,0,0,1,1.123.224,2.676,2.676,0,0,1,.477.954,6.748,6.748,0,0,1,.356,2.163,3.138,3.138,0,0,1-.61,1.944,2.614,2.614,0,0,1-2.4,1.042,1.213,1.213,0,0,1-1.11-1.023A5.938,5.938,0,0,1-327.7,444.356Z" transform="translate(340.584 -435.255)" fill="#e9e9e8"/>
        </g>
      </g>
    </g>
  </g>
</svg>
